<?xml version="1.0" encoding="utf-8"?>
<!-- Generator: Adobe Illustrator 15.0.0, SVG Export Plug-In . SVG Version: 6.00 Build 0)  -->
<!DOCTYPE svg PUBLIC "-//W3C//DTD SVG 1.1//EN" "http://www.w3.org/Graphics/SVG/1.1/DTD/svg11.dtd">
<svg version="1.1" id="Layer_1" xmlns="http://www.w3.org/2000/svg" xmlns:xlink="http://www.w3.org/1999/xlink" x="0px" y="0px"
	 width="900px" height="900px" viewBox="0 0 900 900" enable-background="new 0 0 900 900" xml:space="preserve">
<g>
	<polyline fill="#FFFFFF" points="716.024,98.813 716.024,504.629 492.514,504.629 492.514,98.813 716.024,98.813 	"/>
	<path fill="#25313F" d="M485.842,92.14v419.165V720.41h236.854V511.305l0,0V92.14H485.842z M492.514,98.813h223.51v405.816h-223.51
		V98.813L492.514,98.813z"/>
	<g>
		<g>
			<polygon fill="#25313F" points="595.395,393.994 595.395,408.441 613.141,408.441 613.141,393.994 604.266,385.122 			"/>
			<path fill="#25313F" d="M604.266,359.989c-21.701,0-39.295,17.596-39.295,39.299c0,21.708,17.594,39.298,39.295,39.298
				c21.707,0,39.301-17.589,39.301-39.298C643.567,377.583,625.969,359.989,604.266,359.989z M617.151,412.451h-25.764v-20.115
				l12.877-12.881l12.885,12.881v20.115H617.151z"/>
		</g>
		<g>
			<rect x="552.051" y="174.415" fill="#25313F" width="104.434" height="11.228"/>
			<rect x="552.051" y="206.8" fill="#25313F" width="104.434" height="11.228"/>
			<rect x="552.051" y="239.186" fill="#25313F" width="104.434" height="11.215"/>
			<rect x="552.051" y="271.562" fill="#25313F" width="104.434" height="11.227"/>
			<rect x="552.051" y="303.948" fill="#25313F" width="104.434" height="11.228"/>
		</g>
	</g>
	<g>
		<polyline fill="#FFFFFF" points="539.041,452.168 569.467,605.832 174.17,605.832 207.355,452.168 540.188,452.168 		"/>
		<path fill="#25313F" d="M579.274,611.549l-1.232-5.719L544.94,452.164l-1.24-5.739h-4.717h-331.47h-4.722l-1.34,5.739
			L165.598,605.83l-1.336,5.721h-0.007v18.572h89.086v158.904h236.854V630.123h89.082v-18.572h-0.004L579.274,611.549
			L579.274,611.549z M207.355,452.168h331.687l30.424,153.664H174.17L207.355,452.168z"/>
		<g>
			<g>
				<polygon fill="#25313F" points="372.24,516.406 365.141,521.877 365.138,530.697 379.524,530.697 379.409,521.877 				"/>
				<path fill="#25313F" d="M405.869,525.029c-0.712-15.105-15.831-27.353-33.764-27.353c-17.934,0-32.884,12.248-33.385,27.353
					c-0.504,15.11,14.61,27.354,33.765,27.354C391.64,552.385,406.584,540.141,405.869,525.029z M361.232,534.191l0.09-14.003
					l10.881-8.963l10.998,8.963l0.285,14.003H361.232z"/>
			</g>
			<polygon fill="#25313F" points="511.584,504.07 424.605,504.07 424.052,496.262 510.194,496.262 			"/>
			<polygon fill="#25313F" points="515.612,526.611 426.217,526.611 425.659,518.797 514.215,518.797 			"/>
			<polygon fill="#25313F" points="519.635,549.154 427.828,549.154 427.271,541.338 518.241,541.338 			"/>
			<polygon fill="#25313F" points="319.699,504.07 232.72,504.07 234.004,496.262 320.15,496.262 			"/>
			<polygon fill="#25313F" points="318.398,526.611 229.008,526.611 230.291,518.797 318.847,518.797 			"/>
			<polygon fill="#25313F" points="317.098,549.154 225.292,549.154 226.579,541.338 317.549,541.338 			"/>
		</g>
	</g>
</g>
</svg>
